<svg width="91" height="24" viewBox="0 0 91 24" fill="none" xmlns="http://www.w3.org/2000/svg">
<g clip-path="url(#clip0_586_4338)">
<path d="M0.00892739 9.62129C0.00892739 9.41715 -0.0088233 9.16863 0.00892739 8.92011C0.0799302 8.1923 0.177559 7.47337 0.399443 6.77218C0.603576 6.11538 0.860961 5.49408 1.2071 4.89053C1.926 3.61242 2.95554 2.64497 4.21584 1.92603C4.85487 1.56213 5.53827 1.28698 6.23942 1.09171C6.55893 1.00295 6.8962 0.958575 7.21571 0.896445C8.07662 0.727806 8.93752 0.727806 9.79843 0.772184C10.2688 0.798812 10.7392 0.869818 11.2096 0.976326C11.6268 1.07396 12.0439 1.18934 12.4522 1.33136C13.3663 1.65976 14.2006 2.1213 14.955 2.7426C15.4165 3.12425 15.8425 3.54141 16.2064 4.01183C16.6325 4.571 16.9786 5.17455 17.2537 5.83135C17.3957 6.17751 17.5466 6.51479 17.6354 6.86982C17.7152 7.17159 17.7774 7.48224 17.8395 7.78402C17.9638 8.49408 18.0081 9.20413 17.9993 9.92307C17.9904 10.5266 17.9283 11.1302 17.804 11.7248C17.6442 12.5148 17.3869 13.2781 17.023 14.0148C16.5348 15 15.8869 15.8609 15.0615 16.5887C14.5201 17.068 13.9077 17.4674 13.2598 17.787C12.7628 18.0355 12.2392 18.2396 11.6978 18.3816C11.3871 18.4615 11.0587 18.5237 10.7392 18.5858C9.90494 18.7456 9.07066 18.7544 8.23637 18.7189C7.7571 18.6923 7.27783 18.6124 6.80744 18.5059C6.31042 18.3994 5.82228 18.2485 5.35189 18.0621C4.49985 17.7248 3.71882 17.2633 3.00879 16.6686C2.36089 16.1272 1.8195 15.497 1.37573 14.787C1.09172 14.3166 0.834335 13.8284 0.639077 13.3047C0.497071 12.9231 0.372817 12.5414 0.266312 12.1509C0.177559 11.7958 0.115432 11.4319 0.0621795 11.068C0.0178027 10.6065 -0.0176986 10.1361 0.00892739 9.62129ZM8.8754 4.47337C8.30738 4.46449 7.65947 4.6065 7.02933 4.8994C6.36367 5.20118 5.82228 5.64496 5.36964 6.19526C4.74836 6.96745 4.43772 7.8639 4.31347 8.8491C4.18922 9.85206 4.28684 10.8373 4.59748 11.787C4.79274 12.3905 5.10338 12.9586 5.52939 13.4379C6.13292 14.1302 6.86957 14.6095 7.77485 14.8402C8.44051 15.0089 9.11503 15.0444 9.78956 14.929C10.3398 14.8402 10.8546 14.6716 11.325 14.3698C12.1504 13.8461 12.7717 13.1627 13.1799 12.2663C13.5261 11.5296 13.6592 10.7485 13.7213 9.9497C13.748 9.64792 13.6947 9.34615 13.677 9.04437C13.6326 8.41419 13.464 7.8284 13.2243 7.25147C12.9669 6.63905 12.5853 6.09763 12.0883 5.65384C11.2274 4.8639 10.1889 4.46449 8.8754 4.47337Z" fill="#2681FF"/>
<path d="M61.0003 12.2574C61.0003 14.0947 61.0092 15.9409 60.9914 17.7781C60.9914 18.2663 60.8849 18.7456 60.7873 19.2249C60.6541 19.8551 60.4145 20.4409 60.1039 20.9912C59.7666 21.5858 59.3406 22.0829 58.7992 22.5178C58.2045 22.9971 57.5389 23.3255 56.8289 23.5651C56.4561 23.6894 56.0656 23.7604 55.6751 23.8403C54.8053 24.0178 53.9266 24.0178 53.048 23.9734C52.6131 23.9557 52.1871 23.8935 51.761 23.8137C51.3084 23.7338 50.8558 23.6361 50.4209 23.4941C49.4801 23.2012 48.5748 22.8196 47.7671 22.2426C47.6518 22.1628 47.6163 22.1095 47.7228 21.9675C48.202 21.3196 48.6547 20.6539 49.1162 20.006C49.2493 19.8196 49.3824 19.6332 49.5245 19.4468C49.5866 19.358 49.6487 19.3403 49.7463 19.429C50.2434 19.8728 50.8202 20.1923 51.4415 20.4231C52.3024 20.7426 53.1988 20.9024 54.113 20.8225C54.9739 20.7515 55.7638 20.503 56.3407 19.8018C56.6336 19.4468 56.8289 19.0474 56.9442 18.5947C57.0774 18.071 57.0951 17.5474 57.0863 17.0148C57.0863 16.9527 57.1306 16.8551 57.0419 16.8196C56.9531 16.7841 56.9265 16.8817 56.8821 16.935C56.4561 17.4142 55.9325 17.7515 55.3378 18C54.5124 18.3373 53.6692 18.3906 52.7995 18.3462C51.6989 18.2841 50.7226 17.929 49.8351 17.2811C48.9387 16.6332 48.344 15.7634 47.9446 14.7515C47.7583 14.29 47.6695 13.8018 47.5896 13.3048C47.5097 12.7989 47.5097 12.2929 47.5275 11.787C47.5364 11.3255 47.6429 10.8728 47.7494 10.4202C47.8648 9.93199 48.0423 9.47045 48.2641 9.01779C48.7434 8.05921 49.4446 7.30477 50.3676 6.7811C50.8558 6.50595 51.3705 6.27518 51.9297 6.15092C52.5864 6.00004 53.2432 5.96453 53.9 6.02666C54.7343 6.10654 55.5242 6.37282 56.2253 6.85211C56.5626 7.08288 56.8289 7.38465 57.0774 7.70418C57.1129 7.74856 57.1395 7.81956 57.2105 7.78406C57.2726 7.75743 57.2371 7.6953 57.2371 7.64205C57.2371 7.26039 57.246 6.86986 57.2371 6.4882C57.2371 6.35507 57.2815 6.31956 57.4058 6.31956C58.5507 6.31956 59.7045 6.32844 60.8494 6.31956C61.0092 6.31956 61.0092 6.39944 61.0092 6.51483C61.0092 8.43199 61.0092 10.3403 61.0003 12.2574C61.0092 12.2574 61.0092 12.2574 61.0003 12.2574ZM54.3171 15.2574C54.6367 15.3018 55.0272 15.2219 55.3911 15.071C56.3762 14.645 56.9709 13.8728 57.1573 12.8344C57.317 11.929 57.1395 11.0681 56.5715 10.3136C56.1543 9.76335 55.5952 9.4172 54.9207 9.27518C54.5479 9.20418 54.1663 9.18643 53.7757 9.24856C53.4474 9.30181 53.1367 9.39944 52.8438 9.55921C52.0362 9.99412 51.619 10.7131 51.4593 11.574C51.3261 12.2841 51.3794 13.003 51.7078 13.6598C52.2137 14.6805 53.0302 15.2752 54.3171 15.2574Z" fill="#2681FF"/>
<path d="M81.9727 7.94384C82.1857 7.68644 82.3543 7.42017 82.5939 7.21603C83.0998 6.78112 83.6501 6.43496 84.2891 6.2397C85.0258 6.00893 85.7713 6.02668 86.508 6.11544C87.4754 6.23082 88.3363 6.65686 89.0019 7.39354C89.5078 7.95271 89.8451 8.60952 90.0315 9.3462C90.2179 10.0563 90.2711 10.7663 90.2711 11.4941C90.2622 13.8373 90.2622 16.1805 90.2711 18.5237C90.2711 18.7012 90.2267 18.7456 90.0492 18.7456C88.7978 18.7367 87.5553 18.7367 86.3038 18.7456C86.1086 18.7456 86.0731 18.6835 86.0731 18.4971C86.0819 16.3847 86.0819 14.2634 86.0731 12.1509C86.0731 11.6894 86.0642 11.2279 85.9311 10.7752C85.7536 10.1716 85.4163 9.68348 84.7861 9.50597C84.4933 9.42609 84.1826 9.39058 83.8542 9.45271C83.5081 9.52372 83.1886 9.6036 82.9134 9.81662C82.3898 10.2338 82.1235 10.7841 81.9993 11.432C81.9017 11.9113 81.9372 12.3906 81.9372 12.8699C81.9283 14.7515 81.9283 16.6332 81.9372 18.506C81.9372 18.6746 81.9017 18.7279 81.7241 18.7279C80.4727 18.719 79.2124 18.719 77.961 18.7279C77.8101 18.7279 77.7657 18.6924 77.7657 18.5326C77.7657 12.4083 77.7657 6.28407 77.7657 0.16869C77.7657 0.0266785 77.7924 -0.0177002 77.9433 -0.0177002C79.2124 -0.00882446 80.4727 -0.00882446 81.7419 -0.0177002C81.9017 -0.0177002 81.9372 0.0355542 81.9283 0.186442C81.9283 2.68052 81.9283 5.17461 81.9283 7.66869C81.9372 7.75745 81.9194 7.83733 81.9727 7.94384Z" fill="#2681FF"/>
<path d="M46.5156 6.00003C46.347 6.45269 46.1872 6.87873 46.0186 7.29589C45.7435 8.01482 45.4683 8.73376 45.1932 9.45269C44.9624 10.0385 44.7406 10.6332 44.5187 11.2278C44.3057 11.8048 44.066 12.3817 43.8619 12.9586C43.64 13.5977 43.3737 14.219 43.1607 14.858C42.9744 15.3994 42.7258 15.9231 42.5395 16.4645C42.3442 17.0326 42.1135 17.574 41.9182 18.142C41.7584 18.6036 41.5721 19.0651 41.3945 19.5178C41.1638 20.1391 40.9064 20.7515 40.5958 21.3373C40.0455 22.3669 39.3 23.1923 38.1994 23.6361C37.658 23.858 37.09 23.9557 36.5042 23.9734C35.8741 24 35.2528 24 34.6315 23.8758C34.4274 23.8314 34.2144 23.8403 34.0103 23.7426C33.9393 23.7071 33.9215 23.6716 33.9215 23.6006C33.9304 23.1568 34.0014 22.713 34.0724 22.2781C34.1079 22.0651 34.1256 21.8432 34.1434 21.6213C34.17 21.3018 34.2499 20.9823 34.2588 20.6539C34.2676 20.3787 34.3742 20.3344 34.6404 20.4054C35.1108 20.5296 35.5812 20.5829 36.0871 20.4941C36.8504 20.361 37.161 19.8196 37.4361 19.2071C37.6137 18.8255 37.729 18.4172 37.9065 18.0355C37.9332 17.9734 37.942 17.9024 37.9154 17.8491C37.7645 17.4852 37.6137 17.1302 37.4628 16.7663C37.232 16.2071 36.9924 15.648 36.7616 15.0888C36.522 14.503 36.2735 13.9261 36.0427 13.3403C35.8386 12.8166 35.5989 12.3107 35.4126 11.7781C35.2617 11.3521 35.0576 10.9438 34.8889 10.5267C34.6227 9.87873 34.3564 9.2308 34.0901 8.58287C33.8328 7.95269 33.5576 7.33139 33.3002 6.69234C33.2204 6.4882 33.1405 6.28405 33.0517 6.08879C33.0162 6.00891 33.0517 5.98228 33.1316 5.98228C33.1671 5.98228 33.1937 5.98228 33.2292 5.98228C34.5428 5.98228 35.8563 5.98228 37.1699 5.98228C37.2675 5.98228 37.3296 5.99116 37.374 6.11542C37.516 6.4882 37.6314 6.86985 37.7734 7.24263C37.9687 7.78405 38.1462 8.33435 38.3326 8.87577C38.5101 9.39056 38.6698 9.90536 38.8473 10.4201C38.9805 10.8107 39.1402 11.2012 39.2556 11.6006C39.4065 12.1509 39.6284 12.6746 39.7881 13.2249C39.8325 13.3669 39.8857 13.5 39.939 13.6332C39.9567 13.6687 39.9301 13.7397 40.0011 13.7219C40.0455 13.713 40.081 13.6864 40.0899 13.6332C40.2053 13.216 40.3206 12.7988 40.4449 12.3817C40.5869 11.8935 40.7555 11.4054 40.8887 10.9172C40.9863 10.571 41.1105 10.2426 41.1993 9.8876C41.3235 9.38169 41.5188 8.9024 41.6519 8.39648C41.7407 8.06808 41.8561 7.73968 41.9359 7.41127C42.0424 7.00299 42.22 6.61246 42.3087 6.1953C42.362 5.9379 42.504 5.96453 42.6815 5.96453C43.8708 5.96453 45.0601 5.96453 46.2494 5.96453C46.3292 6.00003 46.4091 6.00003 46.5156 6.00003Z" fill="#2681FF"/>
<path d="M75.7688 12.364C75.8132 12.8876 75.7244 13.4557 75.5913 13.9971C75.2807 15.2486 74.6683 16.3314 73.6831 17.1835C73.0263 17.7515 72.2808 18.1509 71.4465 18.4261C70.5324 18.7279 69.5916 18.8078 68.6508 18.7101C67.781 18.6214 66.9556 18.364 66.1746 17.9379C65.358 17.4941 64.6835 16.9083 64.1599 16.1539C63.8492 15.7012 63.6007 15.222 63.4143 14.6983C63.0593 13.7397 62.9617 12.7545 63.0238 11.7515C63.0593 11.219 63.1658 10.6953 63.3344 10.1717C63.6451 9.23083 64.1244 8.40539 64.8255 7.71308C65.3137 7.23379 65.8817 6.86101 66.5118 6.57698C66.8935 6.40834 67.2751 6.25746 67.6745 6.1687C67.9141 6.11544 68.1715 6.08882 68.42 6.04444C68.8815 5.95568 69.3431 5.98231 69.8046 5.99118C70.275 6.00006 70.7276 6.09769 71.1891 6.21308C72.1299 6.44385 72.9642 6.87876 73.7009 7.49118C74.1979 7.90834 74.6061 8.41426 74.9345 8.98231C75.2629 9.55036 75.4937 10.1539 75.6268 10.8018C75.7244 11.3166 75.7866 11.8137 75.7688 12.364ZM72.1033 12.3107C72.1122 11.9557 72.0589 11.6007 71.9524 11.2456C71.8015 10.7575 71.5441 10.3403 71.1803 9.98527C70.7986 9.61249 70.3548 9.39947 69.8134 9.30184C69.2365 9.19533 68.6952 9.27521 68.207 9.52373C67.2485 10.0208 66.8047 10.8906 66.6982 11.9379C66.6272 12.6835 66.7426 13.4024 67.1153 14.0681C67.5236 14.7959 68.136 15.2663 68.9525 15.3906C69.4229 15.4616 69.9022 15.4438 70.3637 15.2575C70.8785 15.0533 71.2868 14.716 71.5708 14.2634C71.9435 13.6776 72.1299 13.0296 72.1033 12.3107Z" fill="#2681FF"/>
<path d="M20.502 9.74561C20.502 6.82549 20.502 3.89649 20.502 0.976375C20.502 0.79886 20.5375 0.745605 20.7239 0.745605C21.8422 0.754481 22.9605 0.754481 24.0699 0.745605C24.2119 0.745605 24.2563 0.772233 24.2563 0.92312C24.2563 6.79886 24.2563 12.6835 24.2563 18.5592C24.2563 18.7101 24.2031 18.7367 24.0699 18.7367C22.9428 18.7279 21.8245 18.7279 20.6973 18.7367C20.5287 18.7367 20.4932 18.6835 20.4932 18.5237C20.502 15.6036 20.502 12.6746 20.502 9.74561Z" fill="#2681FF"/>
<path d="M27.2562 12.3728C27.2562 10.3225 27.2562 8.27218 27.2562 6.23076C27.2562 6.05324 27.3006 5.99999 27.4781 6.00886C28.5787 6.01774 29.6881 6.01774 30.7886 6.00886C30.9572 6.00886 31.0105 6.03549 31.0105 6.22188C31.0016 10.3313 31.0016 14.4408 31.0105 18.5503C31.0105 18.71 30.975 18.7633 30.8064 18.7544C29.6969 18.7455 28.5875 18.7455 27.4781 18.7544C27.3095 18.7544 27.2562 18.7189 27.2562 18.5414C27.2651 16.4822 27.2562 14.4231 27.2562 12.3728Z" fill="#2681FF"/>
<path d="M31.0016 2.64496C31.0282 3.66567 30.114 4.51774 29.12 4.49999C28.1526 4.49111 27.2473 3.67455 27.2562 2.60058C27.265 1.61537 28.0993 0.736674 29.1555 0.74555C30.1495 0.74555 31.046 1.63312 31.0016 2.64496Z" fill="#2681FF"/>
<path d="M8.9818 12C7.77476 12.0177 6.72747 10.9615 6.74522 9.72779C6.76297 8.55619 7.74813 7.48222 9.03505 7.49997C10.1711 7.51772 11.2716 8.49406 11.2539 9.78992C11.245 10.9526 10.2332 12.0355 8.9818 12Z" fill="#E84E0F"/>
</g>
<defs>
<clipPath id="clip0_586_4338">
<rect width="90.28" height="24" fill="white"/>
</clipPath>
</defs>
</svg>
